<?xml version="1.0" encoding="UTF-8" standalone="no"?><!DOCTYPE svg PUBLIC "-//W3C//DTD SVG 1.1//EN" "http://www.w3.org/Graphics/SVG/1.1/DTD/svg11.dtd"><svg width="100%" height="100%" viewBox="0 0 16667 16667" version="1.1" xmlns="http://www.w3.org/2000/svg" xmlns:xlink="http://www.w3.org/1999/xlink" xml:space="preserve" xmlns:serif="http://www.serif.com/" style="fill-rule:evenodd;clip-rule:evenodd;stroke-linejoin:round;stroke-miterlimit:2;"><g><path d="M5252.292,8456.5c-60.292,-159.584 -238.792,-239.792 -398.125,-178.959l-672.875,256.959c-155.817,59.5 -235.996,232.167 -180.929,389.583l2.2,6.292l1249.729,-473.875Z" style="fill:#665e6d;fill-rule:nonzero;"/><path d="M4150.429,8548.254c9.933,-5.084 20.237,-9.713 30.904,-13.796l672.833,-257c36.083,-13.75 73.208,-20.25 109.666,-20.25c1.708,0 3.459,0 5.167,0.042c-1.667,-0.042 -3.334,-0.042 -5,-0.042c-36.542,0 -73.666,6.542 -109.833,20.333l-672.875,256.959c-10.667,4.083 -20.946,8.671 -30.862,13.754Z" style="fill:#e1ccfb;fill-rule:nonzero;"/><path d="M3986.108,8865.708c-18.396,-128.746 46.896,-257.25 164.321,-317.454c9.916,-5.084 20.196,-9.671 30.862,-13.754l672.875,-256.959c36.167,-13.791 73.292,-20.333 109.833,-20.333c1.667,0 3.334,0 5,0.042c100.5,1.667 195.708,52.75 252.125,138.125c-19.916,4.292 -39.791,9.542 -59.5,15.75c-47.709,-28.667 -102.834,-44.375 -159.417,-44.375c-36.5,0 -73.583,6.541 -109.709,20.25l-672.833,257c-93.837,35.917 -160.308,112.833 -186.192,202.708l-21.4,8.292c-8.75,3.375 -17.413,6.959 -25.967,10.709Z" style="fill:#bab6bd;fill-rule:nonzero;"/><path d="M11367.833,8456.5c60.292,-159.584 238.792,-239.792 398.167,-178.959l672.875,256.959c155.791,59.5 235.958,232.167 180.916,389.583l-2.208,6.292l-1249.75,-473.875Z" style="fill:#665e6d;fill-rule:nonzero;"/><path d="M12571.583,8823.875c-30.791,-77.5 -92.75,-142.246 -176.499,-174.375l-672.875,-257c-36.084,-13.75 -73.167,-20.25 -109.625,-20.25c-31.417,0 -62.375,4.833 -91.833,14.042c-4.333,-4.125 -8.833,-8.25 -13.542,-12.333c15.084,-11.667 31.667,-21.625 49.501,-29.625c31.749,-14.334 65.458,-21.5 99.249,-21.5c29.208,0 58.5,5.375 86.583,16.125l672.875,256.959c97.666,37.291 157.208,129.379 156.167,227.958Z" style="fill:#bab6bd;fill-rule:nonzero;"/><path d="M6378.334,9265l3863.458,0c95.792,0 185.375,-47.166 239.583,-126.125l300.625,-437.958c153.417,-223.542 440.416,-312.25 693.209,-214.333l1109.125,429.708c175.958,68.167 308.208,217.125 355.125,399.917l1101.542,4295.958c27.083,105.583 39.166,214.792 32.457,323.625c-30.374,495 -235.417,782.708 -690.999,773.083c-261.292,-5.542 -509.792,-114.5 -699.167,-294.542l-1283.25,-1220.167c-184.958,-175.833 -430.375,-273.875 -685.583,-273.875l-4808.792,0c-255.167,0 -500.625,98.042 -685.542,273.875l-1283.254,1220.167c-189.396,180.042 -437.9,289 -699.183,294.542c-455.571,9.625 -660.604,-278.083 -691.017,-773.083c-6.683,-108.834 5.388,-218.042 32.471,-323.625l1101.562,-4295.958c46.879,-182.792 179.129,-331.75 355.125,-399.917l1109.088,-429.708c252.833,-97.917 539.791,-9.209 693.25,214.333l300.583,437.958c54.208,78.959 143.833,126.125 239.583,126.125Z" style="fill:#74697c;fill-rule:nonzero;"/><path d="M9064.5,11417.417l-1826.25,0c-12,-294.833 -154.542,-556.5 -371.292,-728.708c38.167,-68.292 111.167,-114.5 195,-114.5l2357.708,0c123.292,0 223.25,99.958 223.25,223.25l0,24.583c-285.709,76.958 -509.542,306.458 -578.417,595.375Z" style="fill:#827889;fill-rule:nonzero;"/><path d="M13405.25,14643.375c-7.083,0 -14.208,-0.083 -21.416,-0.208c-240.417,-5.125 -473.125,-103.292 -655.25,-276.458l-1283.251,-1220.167c-198.041,-188.292 -457.624,-292 -730.875,-292l-4808.75,0c-273.25,0 -532.833,103.708 -730.875,292l-1283.254,1220.167c-182.175,173.167 -414.896,271.333 -655.287,276.458c-7.079,0.125 -14.034,0.208 -20.963,0.208c-381.438,0 -573.271,-226.75 -603.058,-711.625c-5.95,-96.917 3.892,-197.125 29.188,-297.958c101.746,221 286.533,343.5 574.4,343.5c7.212,0 14.475,-0.083 21.817,-0.25c261.379,-5.458 509.838,-114.583 699.133,-294.667l1283.275,-1219.917c120.125,-114.333 265.917,-195.792 423.209,-238.875c48.666,39.083 101.042,73.625 156.625,102.958c149.333,105.583 331.667,167.667 528.542,167.667c271.542,0 515.5,-118.167 683.25,-305.875l2261.916,0c126.876,230.083 371.708,385.833 653,385.833c281.333,0 526.208,-155.792 653.125,-385.833l134.625,0c255.25,0 500.626,98.167 685.542,274.125l1283.25,1219.917c189.542,180.083 438,289.208 699.375,294.667c7.333,0.167 14.625,0.25 21.833,0.25c287.874,0 472.625,-122.292 574.374,-343.25c25.25,100.75 35.084,200.833 29.125,297.708c-29.791,484.75 -221.208,711.625 -602.625,711.625Z" style="fill:#5c5461;fill-rule:nonzero;"/><path d="M10241.792,9455.125l-57.542,0l7.584,-102.708c0.541,-7.292 1,-14.542 1.458,-21.708l48.501,0c117.458,0 227.292,-57.792 293.792,-154.625l37.25,-54.25c5.833,0.709 12.001,1.083 18.5,1.083c10.5,0 21.792,-1.042 33.834,-3.416l-143.708,209.416c-54.333,79.084 -143.959,126.208 -239.667,126.208Zm-1212.333,0l-2651.042,0c-95.708,0 -185.541,-47.125 -239.666,-126.208l-300.625,-438c-111.542,-162.495 -293.792,-253.791 -482.167,-253.791c-70.625,0 -142.084,12.833 -211.042,39.542l-1109.071,429.625c-129.513,50.333 -235.4,144.25 -300.967,263.25l9.492,-37c41.504,-161.917 159.338,-294.584 315.204,-354.959l1109.092,-429.708c61.792,-23.917 125.583,-35.417 188.5,-35.417c166.833,0 327.417,80.917 426.792,225.625l265.042,386.208c1.25,8.375 2.958,16.75 5.208,25c19.417,71.792 94.167,194 376.791,206.042c1.042,0.042 2.083,0.083 3.125,0.083l495.333,0c3.125,0 6.25,-0.25 9.375,-0.625c37.667,-4.833 78.417,-11.958 118.625,-24.083l576.333,0c11,2.583 22.125,5.083 33.458,7.417c55.25,11.458 113.042,17.292 171.708,17.292l1190.5,0l0,99.708Zm3855.708,-85.833c-65.542,-118.917 -171.375,-212.709 -300.791,-263l-1051.791,-407.417c28.499,-28.958 48.958,-61.208 59.25,-96.583l968.75,375.291c9.709,3.75 19.249,7.792 28.666,12.125c0.5,0.208 1,0.458 1.5,0.666c140.834,65.125 246.249,190.875 285,342.167l9.417,36.75Z" style="fill:#c0bbc4;fill-rule:nonzero;"/><path d="M11533.375,9867.542c-160.333,0 -290.333,-130 -290.333,-290.333c0,-7.5 0.291,-14.917 0.833,-22.292c61.625,94.667 168.375,157.416 289.5,157.416c121.125,0 227.833,-62.708 289.458,-157.375c0.542,7.333 0.833,14.75 0.833,22.25c0,160.333 -130,290.333 -290.291,290.333Z" style="fill:#5c5461;fill-rule:nonzero;"/><path d="M11533.375,11056.208c-160.333,0 -290.333,-129.958 -290.333,-290.292c0,-7.5 0.291,-14.958 0.833,-22.292c61.625,94.667 168.375,157.375 289.5,157.375c121.125,0 227.833,-62.709 289.458,-157.375c0.542,7.375 0.833,14.792 0.833,22.292c0,160.334 -130,290.292 -290.291,290.292Z" style="fill:#5c5461;fill-rule:nonzero;"/><path d="M10939,10461.875c-160.334,0 -290.292,-129.958 -290.292,-290.291c0,-7.542 0.292,-14.959 0.833,-22.334c61.583,94.709 168.334,157.417 289.459,157.417c121.124,0 227.875,-62.708 289.458,-157.375c0.583,7.333 0.875,14.792 0.875,22.292c0,160.333 -130,290.291 -290.333,290.291Z" style="fill:#5c5461;fill-rule:nonzero;"/><path d="M12127.708,10461.875c-160.333,0 -290.291,-129.958 -290.291,-290.291c0,-7.542 0.25,-14.959 0.833,-22.334c61.583,94.709 168.334,157.417 289.458,157.417c121.125,0 227.876,-62.708 289.459,-157.375c0.541,7.333 0.833,14.792 0.833,22.292c0,160.333 -129.959,290.291 -290.292,290.291Z" style="fill:#5c5461;fill-rule:nonzero;"/><path d="M5905.708,12854.542l4808.75,0c273.25,0 532.834,103.708 730.875,292l1283.251,1220.167c182.125,173.167 414.833,271.333 655.25,276.458c395.667,8.542 593.708,-217.708 624.041,-711.417c6.042,-98.625 -4.208,-200.667 -30.541,-303.25l-1101.584,-4295.958c-41.5,-161.917 -159.333,-294.584 -315.166,-354.959l-1109.125,-429.667c-225.459,-87.375 -478.459,-9.125 -615.251,190.167l-300.625,438c-66.5,96.833 -176.334,154.625 -293.792,154.625l-3863.458,0c-117.459,0 -227.292,-57.792 -293.792,-154.625l-300.583,-438c-136.833,-199.291 -389.75,-277.583 -615.292,-190.208l-1109.092,429.708c-155.866,60.375 -273.7,193.041 -315.204,354.959l-1101.567,4295.958c-26.292,102.583 -36.588,204.625 -30.533,303.25c29.787,484.875 221.621,711.625 603.058,711.625c6.929,0 13.883,-0.083 20.963,-0.208c240.392,-5.125 473.112,-103.292 655.287,-276.458l1283.254,-1220.167c198.042,-188.292 457.625,-292 730.875,-292Zm7499.125,1920.292c-7.875,0 -15.791,-0.083 -23.792,-0.25c-273.209,-5.75 -537.125,-116.792 -743.041,-312.625l-1283.251,-1220.167c-173.5,-164.917 -400.917,-255.792 -640.291,-255.792l-4808.75,0c-239.417,0 -466.792,90.875 -640.292,255.792l-1283.254,1220.167c-205.979,195.833 -469.879,306.875 -743.088,312.625c-469.196,10.667 -723.362,-270.917 -758.004,-834.792c-6.892,-112.292 4.688,-228 34.383,-343.958l1101.567,-4295.917c52.033,-202.958 199.708,-369.25 395.054,-444.917l1109.091,-429.708c282.584,-109.5 599.709,-11.417 771.167,238.417l300.625,437.958c41.916,61.125 111.25,97.583 185.375,97.583l3863.458,0c74.167,0 143.458,-36.458 185.375,-97.583l300.625,-437.958c171.501,-249.834 488.542,-347.875 771.167,-238.417l1109.125,429.708c195.334,75.667 343,241.959 395.042,444.917l1101.542,4295.917c29.708,115.917 41.291,231.625 34.416,343.958c-34.041,554.208 -281.083,835 -734.25,835.042Z" style="fill:#232323;fill-rule:nonzero;"/><path d="M4002.558,8996.125c-27.175,0 -52.592,-16.958 -62.05,-44.083l-2.204,-6.292c-67.267,-192.333 29.163,-399.958 219.525,-472.666l672.879,-256.959c93.541,-35.666 195.375,-32.75 286.667,8.292c91.291,41.042 161.041,115.208 196.417,208.875c12.791,33.958 -4.292,71.875 -38.292,84.708c-34,12.875 -71.875,-4.333 -84.708,-38.291c-22.917,-60.708 -68.125,-108.792 -127.334,-135.375c-59.208,-26.667 -125.208,-28.542 -185.875,-5.375l-672.833,256.959c-123.454,47.129 -185.975,181.75 -142.346,306.458l2.204,6.333c11.979,34.292 -6.121,71.75 -40.379,83.709c-7.162,2.5 -14.483,3.708 -21.671,3.708Z" style="fill:#232323;fill-rule:nonzero;"/><path d="M7640.708,10123.125l-494.792,0c-52.417,0 -94.917,-42.5 -94.917,-94.917l0,-131.459c0,-52.458 42.5,-94.958 94.917,-94.958l494.792,0c52.458,0 94.958,42.5 94.958,94.958l0,131.459c0,52.416 -42.5,94.917 -94.958,94.917Z" style="fill:#232323;fill-rule:nonzero;"/><path d="M12617.583,8996.125c-7.208,0 -14.5,-1.208 -21.666,-3.708c-34.292,-11.958 -52.375,-49.417 -40.375,-83.709l2.208,-6.333c43.625,-124.708 -18.875,-259.329 -142.334,-306.458l-672.875,-256.959c-60.583,-23.166 -126.625,-21.292 -185.833,5.375c-59.209,26.583 -104.417,74.667 -127.375,135.417c-12.792,33.917 -50.667,51.083 -84.709,38.25c-33.958,-12.833 -51.083,-50.791 -38.291,-84.75c35.417,-93.625 105.167,-167.792 196.458,-208.833c91.334,-41.042 193.125,-44 286.667,-8.292l672.875,257c190.375,72.708 286.792,280.291 219.5,472.666l-2.207,6.25c-9.458,27.083 -34.875,44.083 -62.042,44.083Z" style="fill:#232323;fill-rule:nonzero;"/><path d="M8844.333,10123.125l620.334,0c57.709,0 104.5,-46.75 104.5,-104.459l0,-112.375c0,-57.708 -46.792,-104.5 -104.5,-104.5l-620.334,0c-57.666,0 -104.458,46.792 -104.458,104.5l0,112.375c0,57.708 46.792,104.459 104.458,104.459Z" style="fill:#232323;fill-rule:nonzero;"/><path d="M7173.333,11457.792c0,505.959 -410.166,916.125 -916.167,916.125c-505.958,0 -916.125,-410.166 -916.125,-916.125c0,-505.959 410.167,-916.167 916.125,-916.167c506,0 916.167,410.208 916.167,916.167Z" style="fill:#665e6d;fill-rule:nonzero;"/><path d="M7011.709,12188.333l-99.167,0c196.125,-176.083 321.208,-429.833 326.333,-712.333c3.75,33.542 5.667,67.625 5.667,102.167c0,234.375 -88.041,448.166 -232.833,610.166Z" style="fill:#c0bbc4;fill-rule:nonzero;"/><path d="M6328.458,12494.208c-196.875,0 -379.208,-62.083 -528.542,-167.667c136.625,72.208 292.25,113.125 457.25,113.125c251.583,0 481.417,-95.125 655.375,-251.334l99.167,0c-167.75,187.709 -411.709,305.875 -683.25,305.875Z" style="fill:#b5b2b8;fill-rule:nonzero;"/><path d="M5430.333,11657.041c-15.417,-63.917 -23.583,-130.667 -23.583,-199.25c0,-468.917 381.5,-850.417 850.417,-850.417c343.875,0 640.667,205.083 774.583,499.417c-167.917,-190.083 -413.417,-309.917 -686.833,-309.917c-487.375,0 -885.75,380.25 -914.583,860.166Z" style="fill:#524c57;fill-rule:nonzero;"/><path d="M6257.167,10607.375c-468.916,0 -850.417,381.5 -850.417,850.417c0,468.917 381.5,850.417 850.417,850.417c468.917,0 850.417,-381.5 850.417,-850.417c0,-468.917 -381.5,-850.417 -850.417,-850.417Zm0,1832.292c-541.416,0 -981.875,-440.458 -981.875,-981.875c0,-541.416 440.459,-981.875 981.875,-981.875c541.417,0 981.875,440.459 981.875,981.875c0,541.417 -440.458,981.875 -981.875,981.875Z" style="fill:#232323;fill-rule:nonzero;"/><path d="M5672.958,9881.708c0,411.667 -333.708,745.375 -745.375,745.375c-411.708,0 -745.375,-333.708 -745.375,-745.375c0,-12.291 0.209,-24.542 0.875,-36.833c19.292,-394.584 345.083,-708.792 744.5,-708.792c340.25,0 627.042,228.083 716.417,539.458c18.875,65.5 28.958,134.708 28.958,206.167Z" style="fill:#665e6d;fill-rule:nonzero;"/><path d="M5000.542,10850.333c-295.833,0 -551.292,-172.292 -671.708,-422c148.417,162.417 361.875,264.458 598.75,264.458c417.083,0 761.667,-316.459 806.292,-721.833c7.917,43.5 12.042,88.291 12.042,134c0,411.667 -333.708,745.375 -745.375,745.375Z" style="fill:#5c5461;fill-rule:nonzero;"/><path d="M4257.292,9994.917c-6.208,-36.834 -9.417,-74.709 -9.417,-113.292c0,-374.791 304.917,-679.708 679.708,-679.708c221.792,0 419.125,106.792 543.292,271.667c-128.292,-104.459 -292.042,-167.042 -470.333,-167.042c-392.542,0 -714.125,303.334 -743.25,688.375Z" style="fill:#bab6bd;fill-rule:nonzero;"/><path d="M4927.583,10561.333c-301.875,0 -558.417,-197.792 -646.833,-470.583c136.375,148.875 332.5,242.292 550.209,242.292c18.041,0 35.958,-0.667 53.708,-1.917c14.125,1.334 28.417,2 42.917,2c115.5,0 220.917,-43.375 300.75,-114.75c188.291,-118.833 319.625,-319.667 343.916,-552.375c22.709,67.792 35.042,140.292 35.042,215.625c0,374.792 -304.917,679.708 -679.708,679.708Z" style="fill:#524c57;fill-rule:nonzero;"/><path d="M4927.583,9201.917c-374.791,0 -679.708,304.917 -679.708,679.708c0,374.792 304.917,679.708 679.708,679.708c374.791,0 679.708,-304.916 679.708,-679.708c0,-374.791 -304.917,-679.708 -679.708,-679.708Zm0,1490.875c-447.292,0 -811.175,-363.875 -811.175,-811.167c0,-447.292 363.883,-811.166 811.175,-811.166c447.292,0 811.167,363.875 811.167,811.166c0,447.292 -363.875,811.167 -811.167,811.167Z" style="fill:#232323;fill-rule:nonzero;"/><path d="M5379.083,9881.625c0,249.375 -202.125,451.5 -451.5,451.5c-249.375,0 -451.542,-202.125 -451.542,-451.5c0,-249.375 202.167,-451.542 451.542,-451.542c249.375,0 451.5,202.167 451.5,451.542Z" style="fill:#74697c;fill-rule:nonzero;"/><path d="M5282.625,10160.625c60.417,-76.834 96.458,-173.709 96.458,-279c0,-28.458 -2.625,-56.292 -7.667,-83.292c5.083,27.042 7.708,54.875 7.708,83.375c0,105.292 -36.083,202.125 -96.5,278.917Z" style="fill:#524c57;fill-rule:nonzero;"/><path d="M4927.583,10333.042c-209.125,0 -384.917,-141.917 -436.292,-334.75c5.958,22.167 13.542,43.667 22.625,64.375c-0.875,-10.292 -1.333,-20.833 -1.333,-31.333c0,-21.792 1.542,-43.208 4.542,-64.167c82.75,97.792 206.459,159.917 344.708,159.917c227.583,0 415.917,-168.292 447.042,-387.291c28,33.125 51.333,70.292 68.959,110.583c-3.042,-45.125 -12.709,-88.417 -28.042,-128.916c9.375,24.666 16.667,50.375 21.625,76.875c5.042,27 7.667,54.833 7.667,83.292c0,105.292 -36.042,202.167 -96.458,279c-82.708,105 -211,172.417 -355.042,172.417Z" style="fill:#5c5461;fill-rule:nonzero;"/><path d="M4483.208,9962.083c-4.708,-26.083 -7.208,-52.917 -7.208,-80.375c0,-149.958 73,-282.75 185.375,-364.833c-112.333,82.125 -185.333,214.916 -185.333,364.75c0,27.459 2.458,54.375 7.167,80.459Z" style="fill:#bab6bd;fill-rule:nonzero;"/><path d="M4491.292,9998.292c-3.167,-11.875 -5.875,-23.958 -8.084,-36.208c-4.708,-26.083 -7.167,-53 -7.167,-80.459c0,-149.833 73,-282.625 185.333,-364.75c74.667,-54.542 166.667,-86.75 266.208,-86.75c192.917,0 357.708,121 422.208,291.334c-10.166,-26.708 -22.833,-52.208 -37.708,-76.167c0.875,10.084 1.333,20.167 1.333,30.459c0,21.75 -1.542,43.125 -4.542,64.042c-82.792,-97.875 -206.541,-160 -344.708,-160c-227.75,0 -415.917,168.416 -447.042,387.375c-14.667,-17.333 -28.083,-35.792 -40,-55.25c1.958,29.667 6.75,58.542 14.167,86.375Z" style="fill:#c0bbc4;fill-rule:nonzero;"/><path d="M4513.917,10062.667c-9.083,-20.709 -16.667,-42.208 -22.625,-64.375c-7.417,-27.833 -12.209,-56.708 -14.167,-86.375c11.917,19.459 25.333,37.917 40,55.25c-3,20.958 -4.542,42.375 -4.542,64.167c0,10.5 0.458,21.041 1.333,31.333Zm863.917,-212.292c-17.625,-40.291 -40.959,-77.458 -68.959,-110.583c3,-20.917 4.542,-42.292 4.542,-64.042c0,-10.292 -0.458,-20.375 -1.333,-30.459c14.875,23.958 27.542,49.458 37.708,76.167c15.334,40.5 25,83.792 28.042,128.916Z" style="fill:#b5b2b8;fill-rule:nonzero;"/><path d="M4927.583,9484.875c-218.792,0 -396.75,177.958 -396.75,396.75c0,218.75 177.958,396.75 396.75,396.75c218.792,0 396.75,-178 396.75,-396.75c0,-218.792 -177.958,-396.75 -396.75,-396.75Zm0,903.042c-279.167,0 -506.292,-227.125 -506.292,-506.292c0,-279.167 227.125,-506.292 506.292,-506.292c279.167,0 506.292,227.125 506.292,506.292c0,279.167 -227.125,506.292 -506.292,506.292Z" style="fill:#232323;fill-rule:nonzero;"/><path d="M10599.042,11605.541c0,411.709 -333.667,745.375 -745.376,745.375c-411.666,0 -745.375,-333.666 -745.375,-745.375c0,-12.25 0.25,-24.542 0.917,-36.791c19.25,-394.583 345.042,-708.792 744.458,-708.792c340.292,0 627.083,228.083 716.459,539.417c18.833,65.5 28.916,134.75 28.916,206.167Z" style="fill:#665e6d;fill-rule:nonzero;"/><path d="M10579.75,12188.333l-162.5,0c132.458,-128.083 221.501,-300.791 242.708,-493.583c7.917,43.5 12.042,88.333 12.042,134.042c0,130.416 -33.458,252.958 -92.251,359.541Zm-1289.666,0l-16.459,0c-6.541,-11.833 -12.791,-23.917 -18.667,-36.125c11.333,12.375 23.042,24.458 35.126,36.125Z" style="fill:#5c5461;fill-rule:nonzero;"/><path d="M9926.625,12574.167c-281.292,0 -526.124,-155.75 -653,-385.833l16.459,0c146.041,141.292 344.832,228.292 563.582,228.292c218.75,0 417.543,-87 563.583,-228.292l162.5,0c-126.917,230.042 -371.792,385.833 -653.125,385.833Z" style="fill:#4b454e;fill-rule:nonzero;"/><path d="M9181.667,11707.833c-5.084,-33.417 -7.709,-67.583 -7.709,-102.375c0,-374.792 304.916,-679.708 679.708,-679.708c159.625,0 306.584,55.291 422.667,147.75c-104.292,-55.5 -223.334,-86.917 -349.709,-86.917c-403.583,0 -732.25,320.708 -744.957,721.25Z" style="fill:#bab6bd;fill-rule:nonzero;"/><path d="M9853.666,12285.166c-301.875,0 -558.416,-197.792 -646.792,-470.583c136.334,148.875 332.458,242.292 550.209,242.292c18.042,0 35.917,-0.625 53.667,-1.875c14.125,1.334 28.458,2 42.916,2c115.543,0 220.917,-43.375 300.792,-114.75c188.25,-118.875 319.583,-319.667 343.917,-552.375c22.708,67.792 35,140.292 35,215.584c0,374.791 -304.916,679.708 -679.709,679.708Z" style="fill:#524c57;fill-rule:nonzero;"/><path d="M9853.666,10925.75c-374.791,0 -679.708,304.916 -679.708,679.708c0,374.791 304.916,679.708 679.708,679.708c374.792,0 679.709,-304.916 679.709,-679.708c0,-374.792 -304.916,-679.708 -679.709,-679.708Zm0,1490.875c-447.291,0 -811.166,-363.875 -811.166,-811.166c0,-447.292 363.875,-811.167 811.166,-811.167c447.292,0 811.167,363.875 811.167,811.167c0,447.292 -363.875,811.166 -811.167,811.166Z" style="fill:#232323;fill-rule:nonzero;"/><path d="M10305.208,11605.459c0,249.375 -202.167,451.542 -451.542,451.542c-249.333,0 -451.499,-202.167 -451.499,-451.542c0,-249.375 202.167,-451.5 451.499,-451.5c249.375,0 451.542,202.125 451.542,451.5Z" style="fill:#74697c;fill-rule:nonzero;"/><path d="M10205.25,11888.833c62.5,-77.458 99.958,-176.042 99.958,-283.375c0,-19.917 -1.292,-39.542 -3.791,-58.792l0,0.042c2.541,19.25 3.833,38.917 3.833,58.833c0,107.292 -37.458,205.833 -100,283.292Z" style="fill:#524c57;fill-rule:nonzero;"/><path d="M9853.666,12056.875c-239.25,0 -434.874,-185.792 -450.458,-421.084c0.791,1.25 1.583,2.542 2.375,3.792c5.458,43.959 17.291,85.917 34.458,125.042c-0.876,-10.292 -1.334,-20.833 -1.334,-31.333c0,-15.208 0.75,-30.208 2.208,-45c82.749,99.375 207.5,162.667 347.042,162.667c234.166,0 426.791,-178.208 449.333,-406.458c25.709,30.833 47.334,65.166 64.126,102.166c2.499,19.25 3.791,38.875 3.791,58.792c0,107.333 -37.458,205.916 -99.958,283.375c-82.792,102.5 -209.542,168.042 -351.584,168.042Z" style="fill:#5c5461;fill-rule:nonzero;"/><path d="M9402.292,11595.333c-0.125,-3.875 -0.167,-7.792 -0.167,-11.709c0,-249.541 202.208,-451.542 451.541,-451.542c238.834,0 434.5,185.334 450.25,420.209c-0.791,-1.875 -1.625,-3.708 -2.499,-5.584c-1.25,-9.583 -2.792,-19.083 -4.625,-28.5c-40.667,-207.625 -223.583,-364.25 -443.125,-364.25c-245.957,0 -445.999,196.667 -451.374,441.375Z" style="fill:#bab6bd;fill-rule:nonzero;"/><path d="M9440.917,11688.291c-12.834,-15.416 -24.626,-31.667 -35.333,-48.708c-1.834,-14.542 -2.917,-29.333 -3.292,-44.25c5.375,-244.708 205.417,-441.375 451.374,-441.375c219.542,0 402.459,156.625 443.125,364.25c-10.583,-53.75 -30.708,-104.083 -58.584,-149.083c0.875,10.084 1.292,20.167 1.292,30.459c0,15.167 -0.75,30.167 -2.208,44.917c-82.791,-99.458 -207.542,-162.792 -347,-162.792c-234.375,0 -426.791,178.375 -449.374,406.583Z" style="fill:#c0bbc4;fill-rule:nonzero;"/><path d="M10301.417,11546.708l0,-0.042c-1.25,-9.583 -2.792,-19.083 -4.625,-28.458c1.833,9.417 3.375,18.917 4.625,28.5Z" style="fill:#b1aeb3;fill-rule:nonzero;"/><path d="M9440.042,11764.625c-17.167,-39.125 -29.001,-81.083 -34.458,-125.042c10.708,17.042 22.5,33.292 35.333,48.708c-1.459,14.792 -2.208,29.792 -2.208,45c0,10.5 0.458,21.042 1.334,31.333Zm861.375,-217.959c-16.792,-37 -38.417,-71.333 -64.126,-102.166c1.459,-14.75 2.208,-29.75 2.208,-44.917c0,-10.292 -0.417,-20.375 -1.292,-30.459c27.876,45 48,95.333 58.584,149.083c1.833,9.375 3.375,18.875 4.625,28.458Z" style="fill:#b5b2b8;fill-rule:nonzero;"/><path d="M9853.666,11208.708c-218.75,0 -396.75,178 -396.75,396.75c0,218.791 178,396.75 396.75,396.75c218.792,0 396.751,-177.959 396.751,-396.75c0,-218.75 -177.959,-396.75 -396.751,-396.75Zm0,903.042c-279.167,0 -506.291,-227.125 -506.291,-506.291c0,-279.167 227.124,-506.292 506.291,-506.292c279.167,0 506.292,227.125 506.292,506.292c0,279.167 -227.125,506.291 -506.292,506.291Z" style="fill:#232323;fill-rule:nonzero;"/><path d="M6488.625,10889.958l0,381.708l-228.083,222.792l-222.792,-228.292l0,-376.208l450.875,0Z" style="fill:#74697c;fill-rule:nonzero;"/><rect x="6037.75" y="10889.958" width="450.875" height="105.833" style="fill:#c0bbc4;fill-rule:nonzero;"/><path d="M6483.167,11722.542l0,377.958l-450.917,0l0,-383.417l228.292,-222.625l222.625,228.083Z" style="fill:#74697c;fill-rule:nonzero;"/><path d="M6486,12086.791l-2.834,0l0,-364.25l-153.583,-157.333l0.042,0l153.75,157.541l2.625,0l0,364.042Zm-225.458,-592.333l-5.459,-5.584l5.459,5.584l0.042,0l-0.042,0Z" style="fill:#bab6bd;fill-rule:nonzero;"/><path d="M6260.542,11494.459l-5.459,-5.584l8.333,-8.083l5.459,5.583l-8.333,8.084l0.042,0l-0.042,0Z" style="fill:#c0bbc4;fill-rule:nonzero;"/><path d="M6483.167,12086.791l-5.25,0l0,-213.625l-222.625,-228.084l-220.167,214.75l0,-145.541l153.791,-149.959l0,0.042l71.625,-69.916l69.041,70.792l0,-0.042l153.583,157.333l0,364.25Z" style="fill:#c0bbc4;fill-rule:nonzero;"/><path d="M6260.542,11494.459l-228.292,222.625l-377.916,0l0,-450.917l383.417,0l222.792,228.292Z" style="fill:#74697c;fill-rule:nonzero;"/><path d="M6188.917,11564.375l0,-0.042l71.625,-69.875l-71.625,69.916Z" style="fill:#e3e0e4;fill-rule:nonzero;"/><path d="M6188.917,11564.333l-189.542,-194.083l-345.041,0l0,-104.083l383.417,0l222.792,228.292l-71.625,69.875Z" style="fill:#c0bbc4;fill-rule:nonzero;"/><path d="M6260.542,11494.459l228.333,-222.625l377.917,0l0,450.917l-383.417,0l-222.833,-228.291Z" style="fill:#74697c;fill-rule:nonzero;"/><path d="M6329.583,11565.208l-69.041,-70.75l0.042,0l69.041,70.75l-0.042,0Z" style="fill:#e0dee1;fill-rule:nonzero;"/><path d="M6329.583,11565.25l-69.041,-70.792l69.041,70.75l0,0.042Z" style="fill:#e3e0e4;fill-rule:nonzero;"/><path d="M6329.625,11565.208l-69.041,-70.75l228.291,-222.584l377.917,0l0,107.792l-346.833,0l-190.334,185.542Z" style="fill:#c0bbc4;fill-rule:nonzero;"/><path d="M6092.542,11243.875l168.959,173.125l172.375,-168.416l0,-303.834l-341.334,0l0,299.125Zm168.042,305.375l-0.667,0c-14.542,-0.166 -28.416,-6.125 -38.542,-16.542l-222.833,-228.291c-10,-10.209 -15.583,-23.958 -15.583,-38.25l0,-376.208c0,-30.25 24.542,-54.75 54.792,-54.75l450.917,0c30.25,0 54.75,24.5 54.75,54.75l0,381.667c0,14.75 -5.959,28.875 -16.5,39.208l-228.083,222.792c-10.25,10.042 -23.958,15.625 -38.25,15.625Z" style="fill:#232323;fill-rule:nonzero;"/><path d="M6087.042,12045.708l341.375,0l0,-300.875l-168.833,-172.917l-172.542,168.25l0,305.541Zm396.125,109.542l-450.917,0c-30.25,0 -54.75,-24.5 -54.75,-54.75l0,-383.417c0,-14.791 5.959,-28.916 16.542,-39.25l228.292,-222.584c21.625,-21.084 56.333,-20.708 77.416,0.958l222.625,228.083c10,10.209 15.583,23.958 15.583,38.25l0,377.958c0,30.25 -24.542,54.75 -54.792,54.75Z" style="fill:#232323;fill-rule:nonzero;"/><path d="M5709.084,11662.291l300.875,0l173.125,-168.792l-168.416,-172.541l-305.583,0l0,341.333Zm323.166,109.542l-377.916,0c-30.25,0 -54.792,-24.5 -54.792,-54.75l0,-450.917c0,-30.25 24.542,-54.792 54.792,-54.792l383.417,0c14.75,0 28.875,5.959 39.208,16.542l222.792,228.292c10.167,10.417 15.75,24.417 15.584,38.958c-0.209,14.5 -6.125,28.375 -16.542,38.5l-228.291,222.625c-10.209,9.958 -23.958,15.542 -38.25,15.542Z" style="fill:#232323;fill-rule:nonzero;"/><path d="M6506.459,11667.959l305.583,0l0,-341.334l-300.875,0l-173.125,168.792l168.417,172.542Zm360.333,109.541l-383.417,0c-14.75,0 -28.875,-5.916 -39.167,-16.5l-222.833,-228.292c-10.167,-10.417 -15.75,-24.417 -15.583,-38.958c0.208,-14.5 6.125,-28.375 16.542,-38.542l228.292,-222.584c10.25,-9.958 23.958,-15.583 38.25,-15.583l377.917,0c30.25,0 54.792,24.542 54.792,54.792l0,450.917c0,30.25 -24.542,54.75 -54.792,54.75Z" style="fill:#232323;fill-rule:nonzero;"/><path d="M11823.666,9367.25c0,160.333 -130,290.292 -290.291,290.292c-160.333,0 -290.333,-129.959 -290.333,-290.292c0,-160.333 130,-290.292 290.333,-290.292c160.292,0 290.291,129.959 290.291,290.292Z" style="fill:#12db17;fill-rule:nonzero;"/><path d="M11533.375,9131.708c-129.875,0 -235.542,105.667 -235.542,235.542c0,129.875 105.667,235.542 235.542,235.542c129.875,0 235.5,-105.667 235.5,-235.542c0,-129.875 -105.625,-235.542 -235.5,-235.542Zm0,580.625c-190.291,0 -345.084,-154.791 -345.084,-345.083c0,-190.292 154.792,-345.084 345.084,-345.084c190.25,0 345.084,154.792 345.084,345.084c0,190.292 -154.834,345.083 -345.084,345.083Z" style="fill:#232323;fill-rule:nonzero;"/><path d="M11823.666,10555.959c0,160.333 -130,290.291 -290.291,290.291c-160.333,0 -290.333,-129.958 -290.333,-290.291c0,-160.334 130,-290.334 290.333,-290.334c160.292,0 290.291,130 290.291,290.334Z" style="fill:#6c6cff;fill-rule:nonzero;"/><path d="M11533.375,10320.417c-129.875,0 -235.542,105.667 -235.542,235.542c0,129.875 105.667,235.5 235.542,235.5c129.875,0 235.5,-105.625 235.5,-235.5c0,-129.875 -105.625,-235.542 -235.5,-235.542Zm0,580.583c-190.291,0 -345.084,-154.792 -345.084,-345.041c0,-190.292 154.792,-345.084 345.084,-345.084c190.25,0 345.084,154.792 345.084,345.084c0,190.25 -154.834,345.041 -345.084,345.041Z" style="fill:#232323;fill-rule:nonzero;"/><path d="M10939,10251.917c-160.334,0 -290.292,-130 -290.292,-290.333c0,-160.333 129.958,-290.292 290.292,-290.292c160.333,0 290.333,129.959 290.333,290.292c0,160.333 -130,290.333 -290.333,290.333Z" style="fill:#f2c300;fill-rule:nonzero;"/><path d="M10939,9726.083c-129.834,0 -235.5,105.625 -235.5,235.5c0,129.875 105.666,235.542 235.5,235.542c129.875,0 235.541,-105.667 235.541,-235.542c0,-129.875 -105.666,-235.5 -235.541,-235.5Zm0,580.583c-190.251,0 -345.042,-154.792 -345.042,-345.083c0,-190.25 154.791,-345.084 345.042,-345.084c190.291,0 345.083,154.833 345.083,345.084c0,190.291 -154.791,345.083 -345.083,345.083Z" style="fill:#232323;fill-rule:nonzero;"/><path d="M12127.708,10251.917c-160.333,0 -290.291,-130 -290.291,-290.333c0,-160.333 129.958,-290.292 290.291,-290.292c160.333,0 290.292,129.959 290.292,290.292c0,160.333 -129.959,290.333 -290.292,290.333Z" style="fill:#f9033e;fill-rule:nonzero;"/><path d="M12127.708,9726.083c-129.875,0 -235.541,105.625 -235.541,235.5c0,129.875 105.666,235.542 235.541,235.542c129.876,0 235.542,-105.667 235.542,-235.542c0,-129.875 -105.666,-235.5 -235.542,-235.5Zm0,580.583c-190.291,0 -345.083,-154.792 -345.083,-345.083c0,-190.25 154.791,-345.084 345.083,-345.084c190.292,0 345.084,154.833 345.084,345.084c0,190.291 -154.791,345.083 -345.084,345.083Z" style="fill:#232323;fill-rule:nonzero;"/><path d="M10937.208,9993.5c-72.084,0 -130.541,-43.333 -130.541,-96.75c0,-53.458 58.457,-96.792 130.541,-96.792c72.125,0 130.584,43.333 130.584,96.792c0,53.417 -58.458,96.75 -130.584,96.75Z" style="fill:#f9e48c;fill-rule:nonzero;"/><path d="M11533.375,9383.666c-72.125,0 -130.584,-43.292 -130.584,-96.75c0,-53.458 58.458,-96.75 130.584,-96.75c72.084,0 130.542,43.292 130.542,96.75c0,53.458 -58.458,96.75 -130.542,96.75Z" style="fill:#94ef96;fill-rule:nonzero;"/><path d="M12127.708,9975.25c-72.124,0 -130.541,-43.333 -130.541,-96.792c0,-53.416 58.417,-96.75 130.541,-96.75c72.084,0 130.542,43.333 130.542,96.75c0,53.459 -58.458,96.792 -130.542,96.792Z" style="fill:#fc8da8;fill-rule:nonzero;"/><path d="M11533.375,10555.959c-72.125,0 -130.584,-43.333 -130.584,-96.792c0,-53.416 58.458,-96.75 130.584,-96.75c72.084,0 130.542,43.333 130.542,96.75c0,53.459 -58.458,96.792 -130.542,96.792Z" style="fill:#bdbdff;fill-rule:nonzero;"/><path d="M13189.458,13172.583c-6.041,0 -12.208,-0.208 -18.333,-0.625l-113.333,-7.917c-89.376,-6.25 -168.875,-59.042 -209.334,-138.958l-778.916,-1539.834c-59.584,-117.792 -19.166,-261.583 93,-331.125l346.583,-214.792c42.167,-26.166 88.291,-38.333 133.584,-38.333c106.791,0 208.916,67.625 243.5,179.333l545.667,1762.541c51.042,164.958 -73.208,329.708 -242.416,329.708Z" style="fill:#827889;fill-rule:nonzero;"/><path d="M3470.317,13172.583c-169.204,0 -293.475,-164.75 -242.404,-329.708l545.65,-1762.541c34.579,-111.709 136.725,-179.333 243.5,-179.333c45.304,0 91.433,12.167 133.604,38.333l346.542,214.792c112.209,69.542 152.583,213.333 93,331.125l-778.883,1539.834c-40.446,79.917 -119.954,132.708 -209.338,138.958l-113.313,7.917c-6.167,0.417 -12.304,0.625 -18.358,0.625Z" style="fill:#827889;fill-rule:nonzero;"/><path d="M10900,8796.042c-6.667,-0.5 -13.542,-0.959 -20.167,-1.459c-229.624,345.833 -392.708,307.5 -377.499,77.375c1.958,-32.417 7.624,-68.542 17.208,-108.084l-945.375,-903.875l-0.25,-0.249l-30.708,-29.208l-75.667,570.791c591.458,338 683.584,483.375 650.875,945.875l-53.292,720.375c96.292,67.542 154.25,130.459 181.292,186.917c143.668,297.458 -562.208,418.542 -970.208,122.834c-110.001,-80.084 -173.125,-209.75 -173.125,-345.833l0,-749.875l-1264.208,0c-52.542,0 -105.125,-4.916 -156.708,-15.708c-239.208,-49.375 -389.291,-156.458 -437.917,-195.5c-11.542,-9.584 -17.417,-15 -17.417,-15l-604.958,-1527.459c71.958,-207.791 177.583,-422.958 238.5,-541.124c29.459,-57.208 48.625,-91.583 48.625,-91.583c-582.625,-318.833 -1096.209,-699.292 -1535.084,-1146.292c-226.708,-271.666 -164.333,-590.959 31.167,-696.334l0.25,-0.249c90.375,-48.626 209.25,-51.584 341.167,16.958c272.625,-362.5 470.583,-151.291 364.25,176.375c210.75,180 456.584,354.875 726.042,526.334c198.917,127 410.417,251.75 630,375.541l1849.209,297.209c279.292,101.917 472.083,257.375 582.875,366.959c75.875,74.875 112.959,128.458 112.959,128.458l1019.291,1301.75c146.875,39.542 256.208,81.792 334.292,124.75c401.334,220.333 -25.791,458.333 -465.416,429.333Z" style="fill:#fff;fill-rule:nonzero;"/><path d="M6952.208,6835.583c-2.5,-1.833 -5.125,-3.5 -7.833,-5c-580.042,-317.376 -1090,-697.917 -1515.75,-1131.084c-159.708,-192.999 -151.167,-408.541 -59.792,-522.124c3.708,-4.625 7.541,-9.084 11.458,-13.333c7,90.542 69.5,235.333 312.917,431.416c355.833,286.625 1059,743.042 1319.875,910.251c55.833,35.791 72.917,109.541 38.5,166.25l-99.375,163.625Z" style="fill:#bdbdbd;fill-rule:nonzero;"/><path d="M6621.875,7601.666c-8,0 -16.167,-1.333 -24.167,-4.083c-38.458,-13.375 -58.792,-55.333 -45.458,-93.792c80.208,-231.25 198.958,-467.999 257.416,-579.292c-567.291,-317.708 -1067.75,-695.541 -1488.333,-1123.917c-1.375,-1.416 -2.708,-2.875 -4,-4.416c-222.292,-266.251 -188.708,-555.292 -63.375,-711.167c112.542,-139.999 289.125,-178.458 470.75,-106.541c181.25,-214.334 316.5,-179.083 368.375,-152.125c108.875,56.583 147.417,211.458 101.667,393.875c315.334,263.625 732.75,538.958 1308.208,863.208c35.458,19.958 48,64.875 28,100.334c-19.958,35.458 -64.875,48 -100.375,28.042c-606.208,-341.583 -1040.791,-630.751 -1367.708,-910.084c-22.666,-19.333 -31.416,-50.416 -22.208,-78.75c48.833,-150.5 19.625,-247.583 -15.542,-265.875c-25.375,-13.208 -103.959,2.584 -219.75,156.542c-21.625,28.75 -60.917,37.709 -92.833,21.125c-136.75,-71.042 -265.25,-55.083 -343.708,42.625c-91.375,113.583 -99.917,329.125 59.792,522.124c425.75,433.168 935.708,813.708 1515.75,1131.084c17.208,9.417 29.958,25.333 35.417,44.166c5.458,18.833 3.167,39.084 -6.375,56.25c-1.75,3.208 -178.5,322.958 -281.917,621.125c-10.583,30.417 -39.125,49.541 -69.625,49.541Z" style="fill:#232323;fill-rule:nonzero;"/><path d="M7240.583,8041.291l-8.125,953.959c-4.917,195.75 -118.875,262.792 -303.083,286.375l-495.167,0c-290.542,-12.291 -371.125,-155.208 -274.833,-300.375c30.959,-47.166 80.792,-94.583 147.875,-137.542l-32.667,-818.625c41.5,-446.541 323.208,-563.208 572.5,-478.459c191.833,65.084 364.25,249.542 393.5,494.667Z" style="fill:#fff;fill-rule:nonzero;"/><path d="M7232.375,8995.167l0.208,0l-0.208,0Zm-796.625,212.834l488.917,0c171.292,-22.75 230.583,-77.208 234.041,-214.042l8.125,-948.375c-34.833,-273.167 -272.042,-453.583 -473.917,-451c-192.584,2.459 -318,160.001 -344.625,432.417l32.584,813.75c1.042,26.125 -11.834,50.833 -33.833,64.958c-121.292,77.834 -163.042,159.125 -150.583,205.167c11.458,42.375 80.333,90.083 239.291,97.125Zm493.708,147.417l-495.333,0c-1.042,0 -2.083,-0.042 -3.125,-0.083c-282.625,-12.042 -357.375,-134.25 -376.791,-206.042c-30.833,-114.042 35.292,-240.375 177.75,-343.416l-31.084,-777.959c-0.125,-3.25 -0.042,-6.5 0.25,-9.749c32.917,-353.959 216.042,-567.417 489.875,-570.958c2.042,0 4.042,-0.042 6.084,-0.042c264.208,0 573.417,222.249 616.667,585.5c0.375,3.083 0.542,6.208 0.5,9.333l-8.167,953.833c0,0.333 -0.042,0.709 -0.042,1.125c-6.75,279.416 -212.791,338.042 -367.208,357.833c-3.125,0.375 -6.25,0.625 -9.375,0.625Z" style="fill:#232323;fill-rule:nonzero;"/><path d="M6306.083,8764.417c11.542,-3.25 17,-3.708 24.667,-5c7.292,-1.167 13.917,-1.667 20.875,-2.458c13.542,-1.083 26.875,-1.959 39.916,-2c26.208,-0.625 51.667,0.917 76.834,2.917c50.25,4.625 98.792,13.958 146.041,25.75c47.375,11.417 93,27.292 137.709,43.833c22.333,8.458 44.167,18.125 66.042,27.083l64.208,30.084l-69.417,-12.417c-23.292,-2.958 -46.292,-6.583 -69.459,-8.917c-46.333,-4.333 -92.333,-7.667 -137.958,-6.5c-45.5,0.75 -90.5,4.083 -133.75,11.583c-21.5,4 -42.75,8.333 -62.833,14.333c-10.167,2.792 -19.833,6.167 -29.208,9.5c-4.417,1.875 -9.292,3.542 -13.292,5.458c-3.625,1.625 -9.458,4.25 -8.958,4.833c-38.125,14.208 -80.542,-5.167 -94.75,-43.333c-14.208,-38.125 5.208,-80.541 43.333,-94.75Z" style="fill:#232323;fill-rule:nonzero;"/><path d="M6710.542,8371.25c-181.917,0 -379.792,-38.542 -476.375,-150.833c-22.125,-25.709 -19.208,-64.458 6.459,-86.583c25.75,-22.125 64.542,-19.167 86.625,6.5c73.458,85.375 285.041,126.917 514.333,100.75c199.458,-22.625 318.459,-86.458 344.667,-136.25c15.792,-30 52.917,-41.458 82.917,-25.708c30,15.792 41.542,52.916 25.75,82.958c-78.542,149.166 -356.25,191.625 -439.458,201.042c-45.458,5.167 -94.584,8.125 -144.917,8.125Z" style="fill:#232323;fill-rule:nonzero;"/><path d="M9837.458,10620.583c-200.833,0 -428.125,-55.833 -604.459,-183.75c-127.458,-92.416 -203.541,-243.916 -203.541,-405.25l0,-676.166l-1190.5,0c-58.666,0 -116.458,-5.833 -171.708,-17.292c-312.375,-64.75 -483.666,-222.333 -490.792,-229c-29.708,-27.833 -31.25,-74.458 -3.458,-104.167c27.708,-29.625 74.25,-31.291 103.958,-3.625c3,2.75 152.083,136.917 420.208,192.5c45.417,9.417 93.125,14.167 141.792,14.167l1264.167,0c40.708,0 73.708,33 73.708,73.708l0,749.875c0,114.292 53.334,221.167 142.667,285.958c234.625,170.167 592.833,193.667 780.333,108.833c32.458,-14.666 87.542,-45.958 91.708,-90.25c4.916,-52.834 -58.125,-130.625 -168.667,-208.125c-21.292,-14.875 -33.125,-39.875 -31.208,-65.75l53.208,-720.5c29,-409.417 -24.125,-539.458 -613.959,-876.458c-26,-14.875 -40.416,-44 -36.5,-73.667l75.751,-570.792c3.666,-27.5 22.458,-50.625 48.625,-59.834c26.125,-9.166 55.292,-2.875 75.334,16.292l976.333,933.333c18.959,18.125 26.876,45 20.708,70.5c-30.499,126.542 -10.541,187.125 0.167,194.833c13.251,3.208 96.334,-25.291 227.042,-222.125c14.917,-22.417 41.042,-34.875 67.583,-32.662c302.001,25.495 551.001,-82.333 565.459,-164.713c7.25,-41.334 -75.25,-145.417 -439.334,-243.375c-15.416,-4.125 -29.042,-13.167 -38.874,-25.709l-1019.292,-1301.75c-0.875,-1.083 -1.708,-2.208 -2.458,-3.334c-2.042,-2.916 -219.542,-307.083 -660.709,-468.209c-38.25,-13.958 -57.917,-56.25 -43.959,-94.5c13.959,-38.208 56.333,-57.791 94.5,-43.917c473.501,172.917 708.126,490.167 729.751,520.542l1003.167,1281.083c375.374,104.583 551.125,240.667 522.374,404.625c-34.292,195.541 -370.875,303.291 -679.666,288.917c-190.416,270.542 -322.125,267.333 -384.959,240c-91.291,-39.875 -124.416,-156.208 -93.124,-322.166l-841.667,-804.625l-50.167,378c569.833,330.75 679.208,505.042 644.833,990.375l-50.209,679.833c140.25,106.459 206.375,213.167 196.625,317.542c-8.208,87.792 -71.291,162.709 -177.666,210.834c-85.5,38.708 -199.292,59.958 -323.125,59.958Z" style="fill:#232323;fill-rule:nonzero;"/><path d="M7103.958,6652.708l-132.458,281.584c-17.459,37.083 -61.667,53 -98.75,35.542c-37.083,-17.458 -53,-61.667 -35.541,-98.75c2.5,-5.292 5.791,-10.5 9.292,-14.875l195,-242.583c12.834,-15.959 36.167,-18.5 52.167,-5.667c13.625,10.959 17.459,29.584 10.292,44.75Z" style="fill:#232323;fill-rule:nonzero;"/><path d="M5956.75,6331.5c-29.333,0 -55.25,-21.042 -60.458,-50.917c-5.792,-33.375 16.625,-65.209 50.042,-71c231.083,-40.042 498.083,-356.25 480.167,-668.084c-1.958,-33.833 23.917,-62.874 57.75,-64.792c33.792,-1.625 62.917,23.917 64.834,57.75c20.333,353.833 -262.417,740.75 -581.792,796.167c-3.542,0.583 -7.084,0.875 -10.542,0.875Z" style="fill:#232323;fill-rule:nonzero;"/><path d="M10049.625,8376c-4.332,0 -8.708,-0.458 -13.083,-1.375c-33.125,-7.208 -54.208,-39.875 -47,-73.042c67.625,-311.917 360.959,-575.417 640.5,-575.417c33.917,0 61.417,27.499 61.417,61.417c0,33.875 -27.499,61.375 -61.417,61.375c-218.083,0 -466.166,228.125 -520.458,478.667c-6.25,28.75 -31.709,48.375 -59.959,48.375Z" style="fill:#232323;fill-rule:nonzero;"/><path d="M7536.583,7263.166l-188.792,633.917c-42.25,141.959 25.083,294.25 159.292,356.958c369.209,172.5 782.5,267.959 1239.917,286.417c146.458,5.879 276.458,-93.125 307.417,-236.375l129.541,-600c30.792,-142.625 -45.291,-287.291 -180.75,-341.5c-366.291,-146.708 -744.5,-252 -1136,-310.792c-147.25,-22.084 -288.125,68.667 -330.625,211.375Z" style="fill:#fff;fill-rule:nonzero;"/><path d="M8659.25,7612.25c98.334,-12.041 187.834,57.959 199.875,156.292c12.001,98.292 -58,187.792 -156.379,199.791c-98.287,12.042 -187.787,-57.958 -199.787,-156.292c-12.042,-98.291 57.959,-187.791 156.292,-199.791Z" style="fill:#22a7f0;"/><path d="M8502.167,7804.459c-0.417,-2.5 -0.75,-5 -1.083,-7.542c-1.917,-15.708 -1.5,-31.167 0.542,-46.125c0.917,2.334 1.917,4.625 2.916,6.917c-2.75,15.125 -3.625,30.791 -2.375,46.75Zm355.875,-43.501c-2.625,-15.791 -7.25,-30.791 -13.583,-44.75c0.459,-2.499 0.834,-4.958 1.208,-7.457c5.584,14.041 9.667,28.916 11.583,44.625c0.334,2.541 0.583,5.042 0.791,7.583Z" style="fill:#bdbdbd;fill-rule:nonzero;"/><path d="M8678.958,7954.542c-73.875,0 -139.583,-45.584 -166.375,-112.75c2.25,-16.792 6.875,-32.917 13.542,-48.042c33.125,43 84.996,70 141.792,70c7.208,0 14.542,-0.417 21.917,-1.334c65.208,-7.958 117.792,-50 142.375,-106.083c10.125,13.083 18.5,27.625 24.75,43.333c-10.833,78.709 -73.416,143.459 -156.041,153.542c-7.375,0.917 -14.708,1.334 -21.958,1.334Zm-176.75,-150.042c-0.042,0 -0.042,-0.042 -0.042,-0.042c-1.25,-15.959 -0.375,-31.625 2.375,-46.75l0.042,0c-2.791,15.125 -3.667,30.833 -2.375,46.792Z" style="fill:#227fb2;fill-rule:nonzero;"/><path d="M8859.625,7773.083c-0.167,-1.5 -0.334,-3.042 -0.5,-4.542c-0.333,-2.541 -0.666,-5.042 -1.083,-7.542l0,-0.042c0.417,2.5 0.751,5.043 1.083,7.584c0.167,1.5 0.334,3.042 0.5,4.542Zm-15.167,-56.876c-4.083,-9.041 -8.875,-17.625 -14.333,-25.708c5.459,8.083 10.25,16.667 14.333,25.708Zm-300.004,-42.25c28.167,-33.041 68.296,-56.041 114.796,-61.75c7.375,-0.875 14.708,-1.333 22,-1.333c20.583,0 40.542,3.541 59.208,10.125c-18.667,-6.584 -38.625,-10.125 -59.208,-10.125c-7.25,0 -14.625,0.458 -22,1.374c-46.5,5.667 -86.629,28.667 -114.796,61.709Z" style="fill:#fff;fill-rule:nonzero;"/><path d="M8511.709,7849.375c-4.167,-11.875 -7.167,-24.334 -8.75,-37.334c-0.333,-2.499 -0.583,-5.042 -0.75,-7.541c2.125,12.999 5.625,25.458 10.375,37.291c-0.375,2.499 -0.667,5.042 -0.875,7.584Zm347.917,-42.501c-0.833,-2.416 -1.751,-4.833 -2.667,-7.208c1.709,-12.583 2.125,-25.541 1.083,-38.667c0.417,2.5 0.751,5.001 1.083,7.542c0.167,1.5 0.334,3.042 0.5,4.542c1.083,11.417 1,22.708 0,33.791Zm-333.5,-13.125c-8.5,-11 -15.75,-23.083 -21.542,-36.041c5.75,-31.292 19.75,-60.084 39.871,-83.75c28.167,-33.041 68.296,-56.041 114.796,-61.709c7.375,-0.917 14.75,-1.374 22,-1.374c20.583,0 40.542,3.541 59.208,10.125c36.542,12.874 68.125,37.333 89.667,69.5c5.459,8.083 10.25,16.667 14.333,25.708c-2.499,13.959 -6.666,27.375 -12.25,40.126c-33.167,-42.875 -85,-69.792 -141.75,-69.792c-7.25,0 -14.583,0.458 -21.958,1.375c-65.083,7.916 -117.708,49.875 -142.375,105.833Z" style="fill:#a7dcf9;fill-rule:nonzero;"/><path d="M8858.041,7761c-2.625,-15.791 -7.25,-30.833 -13.583,-44.792c6.333,13.959 10.959,28.959 13.583,44.75l0,0.042Z" style="fill:#e5e5e5;fill-rule:nonzero;"/><path d="M8512.583,7841.792c-4.75,-11.834 -8.25,-24.292 -10.375,-37.291c-1.292,-15.959 -0.417,-31.667 2.375,-46.792c5.792,12.958 13.042,25.042 21.542,36.041c-6.667,15.125 -11.292,31.25 -13.542,48.042Zm344.375,-42.125c-6.25,-15.708 -14.625,-30.25 -24.75,-43.333c5.584,-12.75 9.75,-26.167 12.25,-40.126c6.333,13.959 10.959,29.001 13.583,44.792c1.042,13.126 0.626,26.083 -1.083,38.667Z" style="fill:#a7cce0;fill-rule:nonzero;"/><path d="M8664.792,7657.625c-35.417,4.333 -67.042,22.208 -89.046,50.333c-22,28.125 -31.745,63.126 -27.37,98.542c4.287,35.417 22.162,67.041 50.287,89.041c28.171,22 63.255,31.75 98.546,27.417c35.458,-4.333 67.083,-22.209 89.083,-50.334c22,-28.125 31.75,-63.125 27.417,-98.541c-8.959,-73.167 -75.917,-125.209 -148.917,-116.458Zm15.75,357.833c-49.958,0 -98.25,-16.542 -138.213,-47.875c-47.37,-37.041 -77.495,-90.333 -84.787,-150c-15.042,-123.209 72.917,-235.667 196.162,-250.75c123.046,-14.834 235.713,72.917 250.797,196.125c7.292,59.708 -9.084,118.667 -46.167,165.999c-37.041,47.417 -90.333,77.5 -150,84.792c-9.292,1.125 -18.583,1.708 -27.791,1.708Z" style="fill:#232323;fill-rule:nonzero;"/><path d="M8761.125,8479.333c-3.833,0 -7.749,-0.083 -11.625,-0.25c-179.129,-7.25 -352.25,-26.708 -518.5,-58.292l38.542,-188.875c171.292,32.917 349.871,53.125 535.834,60.625c4.125,0.167 8.25,0.25 12.375,0.25c71.375,0 138.25,-24.875 190.834,-67.459l-14.209,65.792c-23.708,109.917 -120.708,188.209 -233.25,188.209Zm-626.375,-78.375c-212.875,-47.208 -413.917,-114.833 -601.625,-202.542c-105.583,-49.333 -159.958,-171.333 -126.458,-283.833l15.459,-51.917c28.708,61.333 78.083,112.958 143.125,143.5c191,89.126 393.625,157.708 608.083,205.708l-38.583,189.083Z" style="fill:#bdbdbd;fill-rule:nonzero;"/><path d="M7536.583,7263.166l58.833,17.501l-188.75,633.916c-33.5,112.5 20.875,234.5 126.458,283.833c360.042,168.208 769.292,262.625 1216.375,280.667c117.459,5.583 220.334,-74.291 244.875,-187.958l129.542,-599.999c24.666,-114.167 -35.709,-228.375 -143.541,-271.542c-367.171,-147.084 -744.75,-250.374 -1122.292,-307.083c-115.875,-17.416 -228.916,54.875 -262.666,168.167l-58.833,-17.501Zm1223,1338.917c-5,0 -10.001,-0.083 -15.042,-0.291c-463.458,-18.709 -888.542,-116.959 -1263.417,-292.125c-160.25,-74.875 -242.875,-259.792 -192.167,-430.124l188.792,-633.917c51.083,-171.541 222.666,-281.125 398.542,-254.541c386.917,58.083 773.792,163.916 1149.75,314.5c163.583,65.5 255.25,238.542 217.917,411.458l-129.542,599.999c-36.125,167.25 -184,285.042 -354.833,285.042Z" style="fill:#232323;fill-rule:nonzero;"/><path d="M8168,8533.083c-3.25,0 -6.541,-0.291 -9.875,-0.958c-26.583,-5.458 -43.708,-31.416 -38.291,-57.958l89.333,-437.875c11.583,-56.666 -21.041,-113.291 -75.833,-131.749l-46.208,-15.542c-105.208,-35.458 -165.042,-143.626 -139.167,-251.584l128.875,-537.375c6.333,-26.375 32.917,-42.625 59.25,-36.333c26.375,6.333 42.625,32.833 36.333,59.208l-128.875,537.375c-14,58.208 18.25,116.5 74.958,135.583l46.209,15.583c101.667,34.25 162.166,139.375 140.75,244.5l-89.375,437.834c-4.75,23.25 -25.208,39.291 -48.083,39.291Z" style="fill:#232323;fill-rule:nonzero;"/><path d="M7466.75,7559c-7.584,0 -15.334,-1.458 -22.833,-4.416l-706.125,-283.126c-31.5,-12.624 -46.792,-48.374 -34.166,-79.875c12.667,-31.459 48.417,-46.75 79.875,-34.125l706.125,283.125c31.459,12.625 46.792,48.375 34.166,79.833c-9.625,24 -32.667,38.583 -57.041,38.583Z" style="fill:#232323;fill-rule:nonzero;"/><path d="M9536.709,7941.416c-4.542,0 -9.166,-0.499 -13.792,-1.541l-372.25,-85.458c-33.083,-7.542 -53.708,-40.5 -46.124,-73.584c7.624,-33.083 40.583,-53.75 73.583,-46.083l372.25,85.417c33.083,7.583 53.708,40.542 46.124,73.583c-6.541,28.459 -31.833,47.666 -59.791,47.666Z" style="fill:#232323;fill-rule:nonzero;"/><path d="M9486.458,8320.042c-3.875,0 -7.833,-0.334 -11.792,-1.125l-405.125,-78.959c-33.292,-6.5 -55.042,-38.75 -48.541,-72.041c6.5,-33.25 38.667,-54.958 72,-48.501l405.167,78.959c33.292,6.5 55,38.708 48.5,72.042c-5.708,29.292 -31.375,49.625 -60.208,49.625Z" style="fill:#232323;fill-rule:nonzero;"/><path d="M9481.833,7832.417c2.083,-114.583 -7.708,-232.375 -24.708,-348.459c-17.667,-115.958 -41.625,-232.083 -81.749,-341.5l-0.125,-0.374c-4.667,-12.75 1.875,-26.876 14.625,-31.542c11.874,-4.375 25,1.125 30.499,12.166c27.208,55.042 49.417,111.917 69.167,169.417c19.708,57.583 36.75,115.958 51.833,174.833c29.834,117.999 52.584,237.583 63.209,361.708c2.875,33.834 -22.209,63.625 -56.042,66.501c-33.833,2.916 -63.625,-22.209 -66.5,-56.042c-0.167,-2.083 -0.25,-4.208 -0.209,-6.25l0,-0.458Z" style="fill:#232323;fill-rule:nonzero;"/><path d="M9033.083,9258.917l122.626,-257.75c8.833,-18.542 31,-26.417 49.5,-17.583c15.583,7.375 23.583,24.208 20.583,40.375l-52.583,280.541c-7.542,40.375 -46.376,66.917 -86.709,59.375c-40.333,-7.583 -66.917,-46.375 -59.375,-86.708c1.208,-6.333 3.334,-12.667 5.958,-18.25Z" style="fill:#232323;fill-rule:nonzero;"/><path d="M10102,9629.708c-7.5,0 -15.125,-1.417 -22.5,-4.292c-328.25,-129.416 -639.959,-129.5 -952.958,-0.375c-31.333,13 -67.209,-1.958 -80.168,-33.375c-12.916,-31.333 2.001,-67.25 33.375,-80.167c343.75,-141.833 685.5,-141.959 1044.792,-0.375c31.542,12.458 47.042,48.125 34.625,79.667c-9.542,24.125 -32.666,38.917 -57.167,38.917Z" style="fill:#232323;fill-rule:nonzero;"/><path d="M10019.917,10125.833c-26.25,-27.958 -64,-50.291 -107.333,-64.875c-43.375,-14.708 -91.75,-22.125 -141.125,-23.625c-99,-2.625 -202.291,15.959 -298.875,55.917c84.875,-61.417 184.25,-106.292 291.959,-129.292c54,-11.166 110.583,-16.583 169.292,-11.458c58.416,5.167 120.124,21.417 176.541,57l3.584,2.291c34.833,21.958 45.249,67.959 23.291,102.792c-21.958,34.792 -67.959,45.25 -102.791,23.292c-5.333,-3.416 -10.375,-7.625 -14.542,-12.042Z" style="fill:#232323;fill-rule:nonzero;"/><path d="M6924.667,9208l-488.917,0c-158.958,-7.042 -227.833,-54.75 -239.291,-97.125c-6.542,-24.166 1.833,-58 28.792,-95.958c123.25,69.25 222.25,95.333 301.458,95.333c216.458,0 285.083,-194.792 297.166,-236.083l58.5,10.458l-64.208,-30.084c-21.875,-8.958 -43.708,-18.625 -66.042,-27.083c-10.542,-3.916 -21.125,-7.75 -31.792,-11.542c179.708,-77.666 246,-249.25 250.625,-471.916c60.666,-13.167 131.958,-33.834 193.875,-65.75l-6.125,715.708c-0.375,15.5 -1.5,29.958 -3.416,43.416c-0.958,3.959 -1.625,7.958 -1.958,12c-18.042,96.833 -82.667,139.25 -228.667,158.625Zm43.125,-988.75c-11.709,-177 -52,-377.667 -100,-584.75c145.25,67.291 274.083,215.416 299.042,411.083l-0.709,84.458c-33.875,31.959 -100.917,65.75 -198.333,89.208Z" style="fill:#bdbdbd;fill-rule:nonzero;"/><path d="M6929.375,9281.625l-495.167,0c-290.542,-12.291 -371.125,-155.208 -274.833,-300.375c20.875,9.333 41.5,19.875 61.875,31.417c1.334,0.75 2.667,1.542 4,2.25c-26.959,37.958 -35.334,71.792 -28.792,95.958c11.458,42.375 80.333,90.083 239.291,97.125l488.917,0c146,-19.375 210.625,-61.792 228.667,-158.625c-1.708,21.584 6.041,43.75 23.125,59.75c1.542,1.417 10.542,9.75 26.875,22.584c-45.417,93.542 -141.542,132.958 -273.958,149.917Zm225.917,-244.25c1.917,-13.458 3.042,-27.916 3.416,-43.416l6.125,-715.708c27.042,-13.917 52.291,-30 74.125,-48.5l-6.375,752.083c-1.917,-0.167 -3.833,-0.25 -5.75,-0.25c-19.708,0 -39.333,7.875 -53.833,23.375c-8.875,9.458 -14.75,20.667 -17.708,32.417Zm10.833,-907.333l0.709,-84.458c-24.958,-195.667 -153.792,-343.792 -299.042,-411.083c-6.792,-29.208 -13.667,-58.5 -20.708,-87.875c191.833,65.084 364.25,249.542 393.5,494.667l-0.291,30.751c-21.958,0.125 -43.125,12 -54.042,32.791c-4.291,8.126 -11,16.583 -20.125,25.209Z" style="fill:#232323;fill-rule:nonzero;"/><path d="M6882.375,8884.625l-58.5,-10.458c1.458,-4.875 2.083,-7.625 2.083,-7.625l-145.375,-35.625c13.792,-4.5 27.042,-9.542 39.75,-15c10.666,3.792 21.25,7.625 31.792,11.542c22.333,8.458 44.167,18.125 66.042,27.083l64.208,30.084Z" style="fill:#232323;fill-rule:nonzero;"/><path d="M6970.958,8344c0.833,-40 -0.334,-81.667 -3.167,-124.75c97.417,-23.458 164.458,-57.25 198.333,-89.208c9.125,-8.625 15.834,-17.083 20.125,-25.209c10.917,-20.792 32.084,-32.666 54.042,-32.791l-1.334,157.708c-21.833,18.5 -47.083,34.583 -74.125,48.5c-61.917,31.916 -133.209,52.583 -193.875,65.75Z" style="fill:#232323;fill-rule:nonzero;"/><path d="M7203.334,9131.708c-16.334,-12.833 -25.334,-21.166 -26.875,-22.584c-17.083,-16 -24.833,-38.166 -23.125,-59.75c0.333,-4.042 1,-8.041 1.958,-12c2.958,-11.75 8.833,-22.958 17.708,-32.417c14.5,-15.5 34.125,-23.375 53.833,-23.375c1.917,0 3.834,0.083 5.75,0.25l-0.125,13.417c-1.375,55.042 -11.375,99.875 -29.125,136.458Z" style="fill:#232323;fill-rule:nonzero;"/><path d="M10579.375,8720.875c-2.626,-3.667 -5.625,-7.083 -8.917,-10.25l-448.708,-428.959c19.75,-63.125 51.292,-124 90.875,-179.124l466.542,489.421c0,0 -60.958,47.787 -99.791,128.912Zm-554.916,-532.208l-424.334,-405.667c-11.875,-107.875 -32.584,-212.583 -58.75,-316.041c-8.292,-32.375 -17.166,-64.625 -26.791,-96.626l610.917,640.834c-41.042,54.375 -75.5,114.251 -101.042,177.5Z" style="fill:#bdbdbd;fill-rule:nonzero;"/><path d="M10509.166,8872.208c-2.208,0 -4.459,-0.083 -6.833,-0.25c1.958,-32.417 7.624,-68.542 17.208,-108.084l-425.583,-406.875c7.584,-7.917 13.125,-17.917 15.625,-29.375c3.334,-15.416 7.417,-30.75 12.166,-45.958l448.708,428.959c3.292,3.167 6.292,6.583 8.917,10.25c-16.292,34.042 -28.709,73.958 -31.125,118.667c-1.334,22.875 -15.625,32.667 -39.084,32.667Zm-510.791,-606.583l-400.375,-382.833c0.292,-6.001 -0.334,-11.917 -1.75,-17.584c6.292,-10.666 9.458,-23.291 8.333,-36.542c-1.292,-15.291 -2.792,-30.499 -4.459,-45.667l424.334,405.667c-10.126,25.166 -18.875,50.875 -26.083,76.958Z" style="fill:#232323;fill-rule:nonzero;"/><path d="M10093.959,8357l-95.583,-91.375c7.208,-26.083 15.958,-51.792 26.083,-76.958c25.541,-63.25 60,-123.125 101.042,-177.5l87.125,91.376c-39.583,55.124 -71.125,115.999 -90.875,179.124c-4.75,15.208 -8.833,30.542 -12.166,45.958c-2.5,11.458 -8.041,21.458 -15.625,29.375Z" style="fill:#232323;fill-rule:nonzero;"/><path d="M9598,7882.792l-8.584,-8.209c2.542,-2.875 4.834,-6.041 6.834,-9.375c1.416,5.667 2.042,11.583 1.75,17.584Z" style="fill:#232323;fill-rule:nonzero;"/><path d="M9589.417,7874.583l-15.25,-14.583l-0.25,-0.249c-10.333,-18.667 -16.458,-29.208 -16.458,-29.208c0,0 -13.75,-339.667 -96.792,-516.792l53.916,56.583c9.625,32.001 18.5,64.251 26.791,96.626c26.167,103.458 46.875,208.167 58.75,316.041c1.666,15.167 3.167,30.375 4.459,45.667c1.125,13.251 -2.042,25.876 -8.333,36.542c-2,3.334 -4.292,6.5 -6.834,9.375Z" style="fill:#232323;fill-rule:nonzero;"/><path d="M10976.417,8724.958c-29.459,0 -59.709,-1.208 -90.459,-3.787c-2,-0.171 -4.042,-0.254 -6.041,-0.254c-7.041,0 -14.041,1 -20.708,2.958l0,-129.958c11.042,0.212 21.875,0.337 32.458,0.337c288.667,0 402.5,-86.046 447.167,-158.004c91.333,52.083 116.75,96.458 112.583,120.209c-12.959,74 -215.167,168.5 -475,168.5Z" style="fill:#bdbdbd;fill-rule:nonzero;"/><path d="M10973.5,8798.458c-24.374,0 -48.917,-0.792 -73.5,-2.416c-26.042,-16.459 -40.792,-26.042 -40.792,-26.042l0,-46.125c6.667,-1.958 13.667,-2.958 20.708,-2.958c2,0 4.042,0.083 6.041,0.254c30.751,2.579 61.001,3.787 90.459,3.787c259.833,0 462.041,-94.5 475,-168.5c4.167,-23.75 -21.25,-68.125 -112.583,-120.209c16.708,-26.917 23.708,-51.833 26.583,-69.541c378.875,208 19.417,431.75 -391.917,431.75Z" style="fill:#232323;fill-rule:nonzero;"/><path d="M9838.458,10474.125c-172.792,0 -370.583,-48.958 -518.959,-156.584c-89.333,-64.791 -142.667,-171.666 -142.667,-285.958l0,-426.166c103.042,-38 206,-61.917 309.625,-71.875l0,268.041c15.917,89.042 43.708,166.542 84.458,231.333c-34.5,17.75 -67.375,37.958 -98.334,60.333c37.292,-15.416 75.542,-27.667 114.167,-36.709c96.708,135.417 256.749,208.917 492.041,208.917c28.042,0 57.084,-1.042 87.334,-3.125c18.458,27.5 27.374,52.625 25.416,73.792c-4.167,44.292 -59.25,75.583 -91.708,90.25c-68.959,31.208 -160.916,47.75 -261.375,47.75Z" style="fill:#bdbdbd;fill-rule:nonzero;"/><path d="M9836.959,10547.5c-185.458,0 -397.084,-51.542 -560.75,-170.167c-110.001,-80.084 -173.125,-209.75 -173.125,-345.833l0,-401.792l0.042,0c7.833,0 15.75,-1.5 23.417,-4.667c16.749,-6.917 33.541,-13.458 50.291,-19.625l0,426.166c0,114.292 53.334,221.167 142.667,285.958c148.375,107.625 346.167,156.584 518.959,156.584c100.459,0 192.416,-16.542 261.375,-47.75c32.458,-14.666 87.542,-45.958 91.708,-90.25c1.958,-21.167 -6.958,-46.292 -25.416,-73.792c25.917,-1.833 52.708,-4.416 80.291,-7.833c86.042,178.125 -132.583,293 -409.457,293Z" style="fill:#232323;fill-rule:nonzero;"/><path d="M9176.833,9475.209l0,-189.959l48.958,-261.292c3,-16.167 -5,-33 -20.583,-40.375c-4.417,-2.125 -9.083,-3.292 -13.667,-3.542c30.167,-0.333 60.917,-0.75 92.292,-1.25l9.083,0c107.333,1.208 193.541,88.417 193.541,195.75l0,235.292c-103.542,9.042 -206.584,30.833 -309.625,65.375Z" style="fill:#bdbdbd;fill-rule:nonzero;"/><path d="M9103.083,9502.083l0,-137c33.876,-1.25 63.625,-25.791 70.125,-60.583l3.624,-19.25l0,189.959c-24.583,8.25 -49.167,17.208 -73.75,26.875Z" style="fill:#232323;fill-rule:nonzero;"/><path d="M9057.292,9208l-1218.333,0c-48.666,0 -96.375,-4.75 -141.792,-14.167c-202.833,-42.042 -337.541,-129.083 -392.416,-170.167c0.625,-8.667 1.083,-17.584 1.291,-26.708c0,-0.417 0.042,-0.792 0.042,-1.125l7.292,-849.75c35.333,70 93.125,128.708 167.75,163.583c208.417,97.375 432.375,171 669.792,220.375c2.334,0.875 4.708,1.542 7.208,2.083c2.417,0.458 4.833,0.792 7.209,0.917c185.25,37.666 378.625,60.666 579.208,68.75c5.042,0.208 10.042,0.291 15.042,0.291c112.083,0 214.291,-50.663 281.5,-132.792l-12.917,60.042c-30.083,139.125 -153.833,236.5 -295.129,236.5c-4.121,0 -8.246,-0.083 -12.413,-0.25c-409.917,-16.458 -784.708,-95.041 -1123.666,-235.542l10.542,123.292c10.083,115.958 93.125,211.75 206.083,239c181.667,43.458 532.125,88.666 1203.584,88.666c54.291,0 110.582,-0.291 169.083,-0.917c-12.75,1.042 -24.625,8.667 -30.541,21.084l-98.417,206.833Z" style="fill:#bdbdbd;fill-rule:nonzero;"/><path d="M7304.75,9023.667c-17.667,-13.209 -27.042,-21.667 -27.792,-22.334c-8.666,-8.083 -18.75,-13.666 -29.375,-16.75l30.667,-796.167c6.25,-8.417 11.833,-17.167 16.667,-26.333c13.291,-25.25 7.25,-55.458 -12.792,-73.875l1,-26.167c6.625,29.208 16.833,57.417 30.25,84.042l-7.292,849.75c0,0.333 -0.042,0.709 -0.042,1.125c-0.208,9.125 -0.666,18.041 -1.291,26.708Z" style="fill:#232323;fill-rule:nonzero;"/><path d="M7278.25,8188.417l3.875,-100.209c20.042,18.417 26.083,48.625 12.792,73.875c-4.833,9.166 -10.417,17.916 -16.667,26.333Z" style="fill:#232323;fill-rule:nonzero;"/><path d="M9026.459,9281.625l-1187.584,0c-52.542,0 -105.125,-4.916 -156.708,-15.708c-239.208,-49.375 -389.291,-156.458 -437.917,-195.5l3.334,-85.833c10.625,3.083 20.708,8.666 29.375,16.75c0.75,0.667 10.125,9.125 27.792,22.334c54.875,41.083 189.583,128.125 392.416,170.167c45.417,9.417 93.125,14.167 141.792,14.167l1218.333,0l-24.209,50.917c-2.625,5.583 -4.75,11.917 -5.958,18.25c-0.25,1.5 -0.5,2.958 -0.666,4.458Z" style="fill:#232323;fill-rule:nonzero;"/><path d="M8759.584,8602.083c-5,0 -10.001,-0.083 -15.042,-0.291c-200.583,-8.084 -393.958,-31.084 -579.208,-68.75c0.875,0.041 1.791,0.041 2.666,0.041c22.875,0 43.333,-16.042 48.083,-39.291l2.583,-12.583c169,32.083 345.125,51.792 528.25,59.166c4.167,0.167 8.292,0.25 12.417,0.25c141.5,0 265.042,-97.417 295.084,-236.542l13.916,-64.375c0.417,0.083 0.792,0.166 1.208,0.25l20.167,3.917l-48.625,225.417c-67.209,82.129 -169.417,132.792 -281.5,132.792Zm-608.667,-72.042c-237.417,-49.375 -461.375,-123 -669.792,-220.375c-74.625,-34.875 -132.417,-93.583 -167.75,-163.583c-13.417,-26.626 -23.625,-54.834 -30.25,-84.042l0.417,-10.958l51.833,0c0,0 -2.708,13.041 -2.708,33.167l10.333,-34.375c19.875,87.417 78.334,164.083 164.042,204.125c193.042,90.25 398.209,159.417 615.375,207.458l-2.583,12.709c-4.917,24.083 8.708,47.625 31.083,55.875Zm958.5,-407.458l-15.166,-2.916l29.291,-135.625l-14.125,138.542Zm35.333,-133.708l-21.209,-4.834l27.959,-129.416l12.791,2.916c0.667,23.666 -1.499,47.75 -6.708,71.75l-12.834,59.584Z" style="fill:#232323;fill-rule:nonzero;"/><path d="M8168,8533.083c-0.875,0 -1.791,0 -2.666,-0.041c-2.375,-0.125 -4.792,-0.459 -7.209,-0.917c-2.5,-0.542 -4.875,-1.208 -7.208,-2.083c-22.375,-8.25 -36,-31.792 -31.083,-55.875l2.583,-12.709c31.833,7.041 63.875,13.625 96.25,19.75l-2.583,12.583c-4.75,23.25 -25.208,39.291 -48.083,39.291Z" style="fill:#232323;fill-rule:nonzero;"/><path d="M9164.291,7857.542l-12.791,-2.916l8.541,-39.542c2.417,13.916 3.834,28.125 4.25,42.458Z" style="fill:#232323;fill-rule:nonzero;"/><path d="M9089.708,8243.875l-20.167,-3.917c-0.416,-0.083 -0.791,-0.166 -1.208,-0.25l25.918,-120.042l15.166,2.916l-5.833,57.084l-13.875,64.208Z" style="fill:#232323;fill-rule:nonzero;"/><path d="M9103.083,9365.083l0,-83.458l-76.625,0c0.166,-1.5 0.416,-2.958 0.666,-4.458c1.208,-6.333 3.334,-12.667 5.958,-18.25l24.209,-50.917l98.417,-206.833c5.916,-12.417 17.791,-20.042 30.541,-21.084c1.751,0 3.542,-0.042 5.292,-0.042c4.584,0.25 9.25,1.417 13.667,3.542c15.583,7.375 23.583,24.208 20.583,40.375l-48.958,261.292l-3.624,19.25c-6.5,34.792 -36.25,59.333 -70.125,60.583Z" style="fill:#232323;fill-rule:nonzero;"/><path d="M9103.125,9629.708l-0.042,0l0,-127.625c24.583,-9.666 49.167,-18.625 73.75,-26.875c103.042,-34.542 206.083,-56.333 309.625,-65.375l0,123.709c-103.625,9.958 -206.584,33.875 -309.625,71.875c-16.75,6.167 -33.542,12.708 -50.291,19.625c-7.667,3.167 -15.584,4.667 -23.417,4.667Z" style="fill:#232323;fill-rule:nonzero;"/><path d="M9472.583,10093.25c30.959,-22.375 63.834,-42.583 98.334,-60.333c5.083,8.083 10.375,15.958 15.834,23.625c-38.625,9.042 -76.875,21.292 -114.167,36.709Z" style="fill:#232323;fill-rule:nonzero;"/><path d="M9422.042,8183.542l-267.542,-52.167l28.875,-133.625l255.542,58.5l-16.875,127.292Z" style="fill:#bdbdbd;fill-rule:nonzero;"/><path d="M9477.708,8194.375l-55.666,-10.833l16.875,-127.292l73.583,16.833l-34.792,121.292Z" style="fill:#232323;fill-rule:nonzero;"/><path d="M9154.5,8131.375l-38.875,-7.584l29.125,-134.916l38.625,8.875l-28.875,133.625Z" style="fill:#232323;fill-rule:nonzero;"/><path d="M9460.667,8253.625l-357.083,-73.958l12.041,-55.875l38.875,7.584l267.542,52.167l55.666,10.833l-17.041,59.25Z" style="fill:#232323;fill-rule:nonzero;"/><path d="M9115.625,8123.792l-6.208,-1.208l14.125,-138.542l21.209,4.834l-29.125,134.916Z" style="fill:#232323;fill-rule:nonzero;"/><path d="M9103.584,8179.667l5.833,-57.084l6.208,1.208l-12.041,55.875Z" style="fill:#232323;fill-rule:nonzero;"/><path d="M8955.208,7001.083c-846.875,0 -1593.041,-431.417 -2030.292,-1086.625c154,95.084 321.917,193.792 505.667,297.334c0.792,0.416 1.583,0.875 2.417,1.291c418,310.126 935.25,493.792 1494.542,493.792c211.417,0 416.791,-26.249 613.083,-75.625c121.334,70.541 215.542,147.125 282.916,210.667c-269.792,102.916 -562.5,159.166 -868.333,159.166Z" style="fill:#bdbdbd;fill-rule:nonzero;"/><path d="M7433,6213.083c-0.834,-0.416 -1.625,-0.875 -2.417,-1.291c-183.75,-103.542 -351.667,-202.25 -505.667,-297.334c-30.958,-46.375 -60.375,-93.875 -88.125,-142.416c98.125,62.667 199.334,124.75 303.042,186.458c91,92.166 188.958,177.25 293.167,254.583Z" style="fill:#232323;fill-rule:nonzero;"/><path d="M9823.541,6841.917c-67.375,-63.542 -161.582,-140.126 -282.916,-210.667c33,-8.292 65.625,-17.208 98.083,-26.791c112.333,71.917 198.833,146.625 260.166,207.292c-24.917,10.458 -50,20.5 -75.334,30.167Z" style="fill:#232323;fill-rule:nonzero;"/><path d="M6932.083,2789.542l-258.167,934.562l-179.542,649.396l-290.542,-163.583c-70.75,-39.791 -115.708,-113.216 -118.625,-194.266c-6.875,-196.493 16.208,-392.251 71.958,-587.754c49.125,-171.93 123.792,-343.617 225.709,-514.813c78.375,-131.153 231.875,-197.716 380.458,-162.841c88.667,20.633 168.5,39.3 168.75,39.3Z" style="fill:#fff;fill-rule:nonzero;"/><path d="M6417.792,4330.375l-213.958,-120.459c-70.75,-39.791 -115.708,-113.216 -118.625,-194.266c-0.791,-22.259 -1.166,-44.509 -1.208,-66.75c-0.042,-174.088 23.708,-347.646 73.166,-521.004c0,0 30.792,228.978 311.167,244.866c-35.542,168.054 -54.25,342.142 -54.25,520.613c0,45.958 1.25,91.667 3.708,137.001Z" style="fill:#bdbdbd;fill-rule:nonzero;"/><path d="M11640.5,5205.667c-24.791,72.208 -52.791,141.458 -84.25,208.25c0,0 -0.459,1.249 -1.708,3.208c-93.334,198.458 -215.167,374.333 -360.792,531.041c-96.042,103.624 -245.875,137.542 -378,87.417l-203.625,-77.375l273.626,-509.625l444.041,-826.499l226.709,226.708c93.333,93.334 127,231.834 84,356.876Z" style="fill:#fff;fill-rule:nonzero;"/><path d="M11367.333,4193.375c0,1347.459 -1092.333,2439.792 -2439.749,2439.792c-1347.459,0 -2439.792,-1092.333 -2439.792,-2439.792c0,-1347.433 1092.333,-2439.754 2439.792,-2439.754c1347.416,-0 2439.749,1092.321 2439.749,2439.754Z" style="fill:#fff;fill-rule:nonzero;"/><path d="M8927.542,6559.5c-702.251,0 -1334.084,-307.625 -1767.792,-795.084c333.667,181.167 714.25,286.709 1118.833,293.667c437.375,170.459 901.417,270.334 1329.5,270.334c139.417,0 275.042,-10.625 404.709,-32.792c-325.209,168.541 -694.334,263.875 -1085.25,263.875Zm2357.749,-2165.917c-121.084,-336.188 -302.167,-631.346 -526.75,-884.533c-18.792,-425.775 -146.833,-823.258 -356.667,-1165.042c543.167,433.912 891.792,1101.733 891.792,1849.366c0,67.459 -2.833,134.209 -8.375,200.209Z" style="fill:#bdbdbd;fill-rule:nonzero;"/><path d="M11339.625,4561.417c-27,183.709 -72.458,354.417 -133.834,513.583c-184.958,478.708 -517.041,853.25 -943.166,1160.75c-1233,388.333 -3236.458,-501.792 -3715.917,-1597.209c-11.292,-25.541 -21.625,-51.334 -31.208,-77.125c-47.125,-810.296 99.5,-1516.192 618.25,-2021.666c1554.708,-478.459 3692.792,245.37 4205.875,2021.666Z" style="fill:#232323;fill-rule:nonzero;"/><path d="M9608.083,6328.417c-1105.291,0 -2449.625,-665.5 -2958.375,-1493.959c-13.417,-47.583 -25.375,-95.875 -35.834,-144.625c998.542,756.292 1915.959,1163.958 2738.042,1163.958c657.917,0 1254.625,-260.874 1783.625,-812.958l1.042,0.541c-208.876,542.334 -612.042,989 -1123.792,1254.25c-129.667,22.167 -265.292,32.792 -404.709,32.792Z" style="fill:#232323;fill-rule:nonzero;"/><path d="M8927.542,1827.308c-1304.625,0 -2366.042,1061.421 -2366.042,2366.066c0,1304.709 1061.417,2366.125 2366.042,2366.125c1304.708,0 2366.124,-1061.417 2366.124,-2366.125c0,-1304.646 -1061.417,-2366.066 -2366.124,-2366.066Zm0,4879.566c-1385.917,0 -2513.459,-1127.541 -2513.459,-2513.5c0,-1385.904 1127.542,-2513.441 2513.459,-2513.441c1385.958,0 2513.5,1127.537 2513.5,2513.441c0,1385.959 -1127.542,2513.5 -2513.5,2513.5Z" style="fill:#232323;fill-rule:nonzero;"/><path d="M6494.292,4447.292c-12.25,0 -24.625,-3.042 -36.083,-9.5l-290.583,-163.583c-92.542,-52.167 -152.333,-150.25 -156.041,-256.059c-13.667,-392.746 90,-777.217 308.125,-1142.792c95.417,-159.896 280.375,-239.146 460.458,-196.909c80.583,18.829 153.834,35.947 165.75,38.601c11.875,2.266 23.333,7.487 33.292,15.766c31.25,26.063 35.458,72.533 9.417,103.796c-29.167,34.958 -53.208,29.354 -124.417,12.791l-117.625,-27.471c-117.125,-27.346 -237.959,24.392 -300.334,128.954c-203.375,340.821 -300.042,698.179 -287.375,1062.13c1.917,54.817 33,105.675 81.083,132.763l290.583,163.596c35.417,19.958 48,64.917 28.042,100.375c-13.542,24.042 -38.542,37.542 -64.292,37.542Z" style="fill:#232323;fill-rule:nonzero;"/><path d="M10940.875,6132.375c-50.542,0 -101.751,-9.125 -151.208,-27.958l-203.625,-77.375c-38.041,-14.458 -57.208,-57 -42.708,-95.042c14.418,-38.041 56.959,-57.208 95.042,-42.708l203.625,77.375c105.125,39.959 221.917,13.041 297.666,-68.583c197.792,-213 338.834,-447.334 431.208,-716.333c33.292,-97 7.208,-207.251 -66.458,-280.876l-226.751,-226.625c-28.791,-28.751 -28.791,-75.417 -0.042,-104.167c28.792,-28.792 75.417,-28.834 104.208,-0.042l226.751,226.583c113.208,113.126 153.125,283.083 101.666,432.959c-97.833,284.874 -253.459,543.541 -462.583,768.75c-81,87.25 -192.333,134.041 -306.791,134.041Z" style="fill:#232323;fill-rule:nonzero;"/><path d="M11339.667,4635.166c-31.958,0 -61.417,-21 -70.708,-53.25c-260.667,-902.229 -905.459,-1410.52 -1400.5,-1678.038c-820.75,-443.562 -1860.375,-556.066 -2712.999,-293.621c-38.917,12.025 -80.125,-9.841 -92.125,-48.738c-11.958,-38.9 9.875,-80.129 48.75,-92.091c889.083,-273.7 1972.125,-156.876 2826.458,304.813c745.416,402.845 1254.417,1013.795 1472,1766.758c11.25,39.083 -11.25,79.958 -50.375,91.208c-6.791,2 -13.708,2.958 -20.5,2.958Z" style="fill:#232323;fill-rule:nonzero;"/><path d="M11364.25,4131.767c-25.291,0 -48.958,-15.77 -57.875,-40.971c-628.25,-1779.033 -2648.338,-2124.495 -3816,-1797.779c-32.541,9.096 -66.583,-9.929 -75.708,-42.595c-9.125,-32.655 9.958,-66.547 42.625,-75.68c666.583,-186.512 1485.75,-141.879 2191.25,119.454c605.459,224.276 1404.667,710.913 1773.626,1755.687c11.292,31.988 -5.459,67.054 -37.458,78.355c-6.75,2.396 -13.667,3.529 -20.459,3.529Z" style="fill:#232323;fill-rule:nonzero;"/><path d="M9610.375,6401.375c-1250.209,0 -2799.917,-826.5 -3164.083,-1814.458c-14.083,-38.167 5.459,-80.542 43.625,-94.584c38.209,-14.125 80.542,5.417 94.625,43.625c189.708,514.667 757.125,1026.208 1517.708,1368.292c765.375,344.208 1564.667,441.875 2138.125,261.125c38.792,-12.208 80.167,9.292 92.458,48.125c12.209,38.834 -9.333,80.208 -48.166,92.458c-206.834,65.126 -435.126,95.417 -674.292,95.417Z" style="fill:#232323;fill-rule:nonzero;"/><path d="M7072.084,4459.834c-37.917,0 -75.834,-20.25 -92.875,-63.042c-320.125,-803.65 208.708,-1747.108 1019.25,-1747.108c40.75,0 82.208,2.383 124.291,7.288c101.167,11.787 122.042,148.408 30.125,192.349c-560.792,268.159 -861.083,804.109 -980.291,1526.18c-9.042,54.875 -54.75,84.333 -100.5,84.333Z" style="fill:#707070;fill-rule:nonzero;"/><path d="M10439.083,5040.792c-100.291,0 -187.208,-98.292 -150.958,-208.458l197.334,-600.25c23.833,-72.479 87.834,-109.266 151.583,-109.266c61.251,0 122.334,33.916 147.459,102.724c135.874,371.834 20.042,622.25 -263.208,791.917c-26.918,16.125 -55.043,23.334 -82.209,23.334Z" style="fill:#707070;fill-rule:nonzero;"/><path d="M9890.042,5695.75c-78.5,0 -149.542,-32.749 -188.418,-95.167c-66.375,-106.499 64.667,-185 195.626,-266.625c78.875,-49.166 139.791,-88.25 190.208,-88.25c33.292,0 62.001,17 88.375,59.333c66.375,106.5 14,259.001 -116.959,340.583c-54.207,33.792 -113.375,50.125 -168.832,50.125Z" style="fill:#707070;fill-rule:nonzero;"/><path d="M10940.667,5984.916c-32.958,0 -66.375,-5.958 -98.666,-18.25l-98.334,-37.333c122.292,-127.916 231.333,-268.708 324.666,-420.084c83.375,27.292 153.751,37.917 212.709,37.917c54.042,0.042 98.542,-8.917 134.834,-22.167c-75.791,132.292 -167.417,255.916 -276.208,373.083c-52.5,56.542 -124.666,86.833 -199,86.833Z" style="fill:#bdbdbd;fill-rule:nonzero;"/><path d="M10743.667,5929.333l-80.958,-30.792l329.624,-389.041c3.5,0.791 6.167,1.167 8.126,1.167c8.916,0 3.791,-7.417 -2.375,-14.875c-6.167,-7.417 -13.375,-14.875 -8.667,-14.875c1.5,0 4.208,0.751 8.584,2.542c24.416,9.874 47.833,18.458 70.333,25.791c-93.333,151.375 -202.374,292.167 -324.666,420.084Z" style="fill:#232323;fill-rule:nonzero;"/><path d="M10940.042,6058.375c-41.708,0 -83.834,-7.458 -124.292,-22.792l-203.625,-77.375l50.584,-59.667l80.958,30.792l98.334,37.333c32.292,12.291 65.708,18.25 98.666,18.25c74.334,0 146.5,-30.291 199,-86.833c108.791,-117.167 200.417,-240.792 276.208,-373.083c90.792,-33.083 130.125,-93.167 138.667,-107.875c-93.334,198.458 -215.167,374.333 -360.792,531.041c-66.625,71.875 -159.166,110.208 -253.708,110.208Z" style="fill:#232323;fill-rule:nonzero;"/></g></svg>